<svg width="236" height="236" viewBox="0 0 236 236" fill="none" xmlns="http://www.w3.org/2000/svg">
<g id="Ellipse 4">
<mask id="path-1-inside-1_1273_68" fill="white">
<path d="M119.803 4.56547C119.834 2.42266 121.597 0.703815 123.737 0.805253C149.525 2.02735 174.235 11.7142 194.01 28.4232C214.774 45.9684 228.812 70.1704 233.732 96.9057C238.653 123.641 234.151 151.255 220.994 175.043C207.837 198.831 186.838 217.321 161.577 227.363C136.315 237.405 108.353 238.377 82.4556 230.113C56.5577 221.85 34.3263 204.862 19.5493 182.045C4.77229 159.228 -1.63603 131.993 1.41624 104.98C4.32306 79.2554 15.639 55.2481 33.5502 36.6553C35.037 35.1119 37.4991 35.1512 38.9926 36.6882C40.486 38.2251 40.445 40.6773 38.9618 42.2242C22.3363 59.5631 11.833 81.911 9.12777 105.852C6.27709 131.08 12.2622 156.516 26.0632 177.826C39.8642 199.137 60.6273 215.002 84.8146 222.72C109.002 230.438 135.117 229.53 158.71 220.151C182.303 210.773 201.915 193.504 214.203 171.287C226.491 149.07 230.695 123.28 226.1 98.3103C221.505 73.3409 208.393 50.7374 189.001 34.351C170.598 18.8009 147.618 9.76272 123.626 8.56959C121.486 8.46315 119.772 6.70828 119.803 4.56547Z"/>
</mask>
<path d="M119.803 4.56547C119.834 2.42266 121.597 0.703815 123.737 0.805253C149.525 2.02735 174.235 11.7142 194.01 28.4232C214.774 45.9684 228.812 70.1704 233.732 96.9057C238.653 123.641 234.151 151.255 220.994 175.043C207.837 198.831 186.838 217.321 161.577 227.363C136.315 237.405 108.353 238.377 82.4556 230.113C56.5577 221.85 34.3263 204.862 19.5493 182.045C4.77229 159.228 -1.63603 131.993 1.41624 104.98C4.32306 79.2554 15.639 55.2481 33.5502 36.6553C35.037 35.1119 37.4991 35.1512 38.9926 36.6882C40.486 38.2251 40.445 40.6773 38.9618 42.2242C22.3363 59.5631 11.833 81.911 9.12777 105.852C6.27709 131.08 12.2622 156.516 26.0632 177.826C39.8642 199.137 60.6273 215.002 84.8146 222.72C109.002 230.438 135.117 229.53 158.71 220.151C182.303 210.773 201.915 193.504 214.203 171.287C226.491 149.07 230.695 123.28 226.1 98.3103C221.505 73.3409 208.393 50.7374 189.001 34.351C170.598 18.8009 147.618 9.76272 123.626 8.56959C121.486 8.46315 119.772 6.70828 119.803 4.56547Z" fill="#181D37" stroke="#FF6A6A" stroke-width="12" mask="url(#path-1-inside-1_1273_68)"/>
</g>
</svg>
